<svg width="16" height="20" viewBox="0 0 16 20" fill="none" xmlns="http://www.w3.org/2000/svg">
<path fill-rule="evenodd" clip-rule="evenodd" d="M11.0785 14.0212C10.052 14.8423 8.75002 15.3333 7.33333 15.3333C4.01962 15.3333 1.33333 12.647 1.33333 9.33333C1.33333 6.01962 4.01962 3.33333 7.33333 3.33333C10.647 3.33333 13.3333 6.01962 13.3333 9.33333C13.3333 10.75 12.8424 12.052 12.0213 13.0784L14.4714 15.5285C14.7318 15.7889 14.7318 16.211 14.4714 16.4713C14.2111 16.7317 13.7889 16.7317 13.5286 16.4713L11.0785 14.0212ZM2.66667 9.33333C2.66667 6.756 4.756 4.66667 7.33333 4.66667C9.91066 4.66667 12 6.756 12 9.33333C12 10.5905 11.5029 11.7316 10.6945 12.5707C10.6716 12.5883 10.6496 12.6076 10.6286 12.6285C10.6076 12.6495 10.5883 12.6715 10.5707 12.6945C9.73161 13.5029 8.59053 14 7.33333 14C4.756 14 2.66667 11.9107 2.66667 9.33333Z" fill="#ABB1BA"/>
</svg>
